<mxfile host="app.diagrams.net" agent="Mozilla/5.0 (Windows NT 10.0; Win64; x64; rv:144.0) Gecko/20100101 Firefox/144.0" version="28.2.7">
  <diagram name="Strona-1" id="2ckkWR4jRFKhjTPQ8WSi">
    <mxGraphModel dx="2178" dy="931" grid="1" gridSize="10" guides="1" tooltips="1" connect="1" arrows="1" fold="1" page="1" pageScale="1" pageWidth="827" pageHeight="1169" math="1" shadow="0">
      <root>
        <mxCell id="0" />
        <mxCell id="1" parent="0" />
        <mxCell id="m3ocWKWfKcMocIrsz7Ho-28" value="" style="shape=parallelogram;perimeter=parallelogramPerimeter;whiteSpace=wrap;html=1;fixedSize=1;" parent="1" vertex="1">
          <mxGeometry x="-450" y="630" width="180" height="70" as="geometry" />
        </mxCell>
        <mxCell id="m3ocWKWfKcMocIrsz7Ho-1" value="" style="ellipse;whiteSpace=wrap;html=1;" parent="1" vertex="1">
          <mxGeometry x="-90" y="50" width="110" height="70" as="geometry" />
        </mxCell>
        <mxCell id="m3ocWKWfKcMocIrsz7Ho-2" value="Start" style="text;strokeColor=none;fillColor=none;html=1;align=center;verticalAlign=middle;whiteSpace=wrap;rounded=0;fontSize=16;" parent="1" vertex="1">
          <mxGeometry x="-65" y="70" width="60" height="30" as="geometry" />
        </mxCell>
        <mxCell id="m3ocWKWfKcMocIrsz7Ho-3" value="" style="endArrow=classic;html=1;rounded=0;fontSize=12;startSize=8;endSize=8;curved=1;" parent="1" edge="1">
          <mxGeometry width="50" height="50" relative="1" as="geometry">
            <mxPoint x="-35.5" y="120" as="sourcePoint" />
            <mxPoint x="-35.5" y="170" as="targetPoint" />
          </mxGeometry>
        </mxCell>
        <mxCell id="m3ocWKWfKcMocIrsz7Ho-4" value="" style="shape=parallelogram;perimeter=parallelogramPerimeter;whiteSpace=wrap;html=1;fixedSize=1;" parent="1" vertex="1">
          <mxGeometry x="-95" y="170" width="120" height="60" as="geometry" />
        </mxCell>
        <mxCell id="m3ocWKWfKcMocIrsz7Ho-6" value="Wprowadź a,b,c" style="text;strokeColor=none;fillColor=none;html=1;align=center;verticalAlign=middle;whiteSpace=wrap;rounded=0;fontSize=16;" parent="1" vertex="1">
          <mxGeometry x="-80" y="185" width="90" height="30" as="geometry" />
        </mxCell>
        <mxCell id="m3ocWKWfKcMocIrsz7Ho-7" value="" style="endArrow=classic;html=1;rounded=0;fontSize=12;startSize=8;endSize=8;curved=1;" parent="1" edge="1">
          <mxGeometry width="50" height="50" relative="1" as="geometry">
            <mxPoint x="-36" y="230" as="sourcePoint" />
            <mxPoint x="-36" y="270" as="targetPoint" />
          </mxGeometry>
        </mxCell>
        <mxCell id="m3ocWKWfKcMocIrsz7Ho-8" value="" style="rhombus;whiteSpace=wrap;html=1;" parent="1" vertex="1">
          <mxGeometry x="-75" y="270" width="80" height="60" as="geometry" />
        </mxCell>
        <mxCell id="m3ocWKWfKcMocIrsz7Ho-5" value="a = 0?" style="text;strokeColor=none;fillColor=none;html=1;align=center;verticalAlign=middle;whiteSpace=wrap;rounded=0;fontSize=16;" parent="1" vertex="1">
          <mxGeometry x="-65" y="285" width="60" height="30" as="geometry" />
        </mxCell>
        <mxCell id="m3ocWKWfKcMocIrsz7Ho-9" value="" style="endArrow=none;html=1;rounded=0;fontSize=12;startSize=8;endSize=8;curved=1;exitX=1;exitY=0.5;exitDx=0;exitDy=0;" parent="1" edge="1">
          <mxGeometry width="50" height="50" relative="1" as="geometry">
            <mxPoint x="5" y="299.5" as="sourcePoint" />
            <mxPoint x="320" y="300" as="targetPoint" />
          </mxGeometry>
        </mxCell>
        <mxCell id="m3ocWKWfKcMocIrsz7Ho-10" value="" style="endArrow=classic;html=1;rounded=0;fontSize=12;startSize=8;endSize=8;curved=1;" parent="1" edge="1">
          <mxGeometry width="50" height="50" relative="1" as="geometry">
            <mxPoint x="319" y="300" as="sourcePoint" />
            <mxPoint x="319.28999999999996" y="360" as="targetPoint" />
          </mxGeometry>
        </mxCell>
        <mxCell id="m3ocWKWfKcMocIrsz7Ho-11" value="Nie" style="text;strokeColor=none;fillColor=none;html=1;align=center;verticalAlign=middle;whiteSpace=wrap;rounded=0;fontSize=16;" parent="1" vertex="1">
          <mxGeometry x="110" y="270" width="60" height="30" as="geometry" />
        </mxCell>
        <mxCell id="m3ocWKWfKcMocIrsz7Ho-12" value="" style="rounded=0;whiteSpace=wrap;html=1;" parent="1" vertex="1">
          <mxGeometry x="-82.5" y="440" width="110" height="50" as="geometry" />
        </mxCell>
        <mxCell id="m3ocWKWfKcMocIrsz7Ho-13" value="`x = -c/b`" style="text;strokeColor=none;fillColor=none;html=1;align=center;verticalAlign=middle;whiteSpace=wrap;rounded=0;fontSize=16;" parent="1" vertex="1">
          <mxGeometry x="-57.5" y="450" width="60" height="30" as="geometry" />
        </mxCell>
        <mxCell id="m3ocWKWfKcMocIrsz7Ho-14" value="" style="endArrow=classic;html=1;rounded=0;fontSize=12;startSize=8;endSize=8;curved=1;" parent="1" edge="1">
          <mxGeometry width="50" height="50" relative="1" as="geometry">
            <mxPoint x="-32.5" y="490" as="sourcePoint" />
            <mxPoint x="-32.5" y="550" as="targetPoint" />
          </mxGeometry>
        </mxCell>
        <mxCell id="m3ocWKWfKcMocIrsz7Ho-15" value="" style="shape=parallelogram;perimeter=parallelogramPerimeter;whiteSpace=wrap;html=1;fixedSize=1;" parent="1" vertex="1">
          <mxGeometry x="-97.5" y="550" width="125" height="60" as="geometry" />
        </mxCell>
        <mxCell id="m3ocWKWfKcMocIrsz7Ho-16" value="print(x)" style="text;strokeColor=none;fillColor=none;html=1;align=center;verticalAlign=middle;whiteSpace=wrap;rounded=0;fontSize=16;" parent="1" vertex="1">
          <mxGeometry x="-65" y="565" width="60" height="30" as="geometry" />
        </mxCell>
        <mxCell id="m3ocWKWfKcMocIrsz7Ho-17" value="" style="endArrow=none;html=1;rounded=0;fontSize=12;startSize=8;endSize=8;curved=1;" parent="1" edge="1">
          <mxGeometry width="50" height="50" relative="1" as="geometry">
            <mxPoint x="-360" y="301" as="sourcePoint" />
            <mxPoint x="-75" y="300.5" as="targetPoint" />
          </mxGeometry>
        </mxCell>
        <mxCell id="m3ocWKWfKcMocIrsz7Ho-18" value="" style="endArrow=classic;html=1;rounded=0;fontSize=12;startSize=8;endSize=8;curved=1;" parent="1" edge="1">
          <mxGeometry width="50" height="50" relative="1" as="geometry">
            <mxPoint x="-360.71000000000004" y="300" as="sourcePoint" />
            <mxPoint x="-360.41999999999996" y="360" as="targetPoint" />
          </mxGeometry>
        </mxCell>
        <mxCell id="m3ocWKWfKcMocIrsz7Ho-19" value="Tak" style="text;strokeColor=none;fillColor=none;html=1;align=center;verticalAlign=middle;whiteSpace=wrap;rounded=0;fontSize=16;" parent="1" vertex="1">
          <mxGeometry x="-260" y="270" width="60" height="30" as="geometry" />
        </mxCell>
        <mxCell id="m3ocWKWfKcMocIrsz7Ho-21" value="" style="rhombus;whiteSpace=wrap;html=1;" parent="1" vertex="1">
          <mxGeometry x="-400" y="360" width="80" height="60" as="geometry" />
        </mxCell>
        <mxCell id="m3ocWKWfKcMocIrsz7Ho-22" value="&lt;div&gt;b = 0?&lt;/div&gt;" style="text;strokeColor=none;fillColor=none;html=1;align=center;verticalAlign=middle;whiteSpace=wrap;rounded=0;fontSize=16;" parent="1" vertex="1">
          <mxGeometry x="-390" y="375" width="60" height="30" as="geometry" />
        </mxCell>
        <mxCell id="m3ocWKWfKcMocIrsz7Ho-23" value="" style="endArrow=classic;html=1;rounded=0;fontSize=12;startSize=8;endSize=8;curved=1;" parent="1" edge="1">
          <mxGeometry width="50" height="50" relative="1" as="geometry">
            <mxPoint x="-360.5000000000001" y="480" as="sourcePoint" />
            <mxPoint x="-360.5" y="480" as="targetPoint" />
          </mxGeometry>
        </mxCell>
        <mxCell id="m3ocWKWfKcMocIrsz7Ho-24" value="Tak" style="text;strokeColor=none;fillColor=none;html=1;align=center;verticalAlign=middle;whiteSpace=wrap;rounded=0;fontSize=16;" parent="1" vertex="1">
          <mxGeometry x="-420" y="430" width="60" height="30" as="geometry" />
        </mxCell>
        <mxCell id="m3ocWKWfKcMocIrsz7Ho-30" value="" style="endArrow=classic;html=1;rounded=0;fontSize=12;startSize=8;endSize=8;curved=1;entryX=0.5;entryY=0;entryDx=0;entryDy=0;" parent="1" target="IYd9A0a_aof_fWHvziBx-7" edge="1">
          <mxGeometry width="50" height="50" relative="1" as="geometry">
            <mxPoint x="-360.5" y="420" as="sourcePoint" />
            <mxPoint x="-360.18421052631595" y="480" as="targetPoint" />
          </mxGeometry>
        </mxCell>
        <mxCell id="m3ocWKWfKcMocIrsz7Ho-29" value="&lt;div&gt;print(&quot;Nieskończenie wiele rozwiązań&quot;)&lt;/div&gt;" style="text;strokeColor=none;fillColor=none;html=1;align=center;verticalAlign=middle;whiteSpace=wrap;rounded=0;fontSize=16;" parent="1" vertex="1">
          <mxGeometry x="-386" y="650" width="66" height="30" as="geometry" />
        </mxCell>
        <mxCell id="m3ocWKWfKcMocIrsz7Ho-33" value="" style="endArrow=none;html=1;rounded=0;fontSize=12;startSize=8;endSize=8;curved=1;" parent="1" edge="1">
          <mxGeometry width="50" height="50" relative="1" as="geometry">
            <mxPoint x="-320" y="389.5" as="sourcePoint" />
            <mxPoint x="-30" y="390" as="targetPoint" />
          </mxGeometry>
        </mxCell>
        <mxCell id="m3ocWKWfKcMocIrsz7Ho-34" value="&lt;div&gt;Nie&lt;/div&gt;" style="text;strokeColor=none;fillColor=none;html=1;align=center;verticalAlign=middle;whiteSpace=wrap;rounded=0;fontSize=16;" parent="1" vertex="1">
          <mxGeometry x="-210" y="570" width="60" height="30" as="geometry" />
        </mxCell>
        <mxCell id="m3ocWKWfKcMocIrsz7Ho-35" value="" style="endArrow=classic;html=1;rounded=0;fontSize=12;startSize=8;endSize=8;curved=1;" parent="1" edge="1">
          <mxGeometry width="50" height="50" relative="1" as="geometry">
            <mxPoint x="-29.580000000000013" y="390" as="sourcePoint" />
            <mxPoint x="-30" y="440" as="targetPoint" />
          </mxGeometry>
        </mxCell>
        <mxCell id="m3ocWKWfKcMocIrsz7Ho-36" value="" style="shape=parallelogram;perimeter=parallelogramPerimeter;whiteSpace=wrap;html=1;fixedSize=1;" parent="1" vertex="1">
          <mxGeometry x="-245" y="630" width="150" height="70" as="geometry" />
        </mxCell>
        <mxCell id="m3ocWKWfKcMocIrsz7Ho-37" value="print(&quot;Równanie sprzeczne&quot;)" style="text;strokeColor=none;fillColor=none;html=1;align=center;verticalAlign=middle;whiteSpace=wrap;rounded=0;fontSize=16;" parent="1" vertex="1">
          <mxGeometry x="-200" y="650" width="60" height="30" as="geometry" />
        </mxCell>
        <mxCell id="IYd9A0a_aof_fWHvziBx-7" value="" style="rhombus;whiteSpace=wrap;html=1;" vertex="1" parent="1">
          <mxGeometry x="-400" y="510" width="80" height="60" as="geometry" />
        </mxCell>
        <mxCell id="IYd9A0a_aof_fWHvziBx-4" value="&lt;div&gt;c = 0?&lt;/div&gt;" style="text;strokeColor=none;fillColor=none;html=1;align=center;verticalAlign=middle;whiteSpace=wrap;rounded=0;fontSize=16;" vertex="1" parent="1">
          <mxGeometry x="-390" y="525" width="60" height="30" as="geometry" />
        </mxCell>
        <mxCell id="IYd9A0a_aof_fWHvziBx-8" value="" style="endArrow=classic;html=1;rounded=0;fontSize=12;startSize=8;endSize=8;curved=1;" edge="1" parent="1">
          <mxGeometry width="50" height="50" relative="1" as="geometry">
            <mxPoint x="-360" y="570" as="sourcePoint" />
            <mxPoint x="-359.68421052631595" y="630" as="targetPoint" />
          </mxGeometry>
        </mxCell>
        <mxCell id="IYd9A0a_aof_fWHvziBx-10" value="Tak" style="text;strokeColor=none;fillColor=none;html=1;align=center;verticalAlign=middle;whiteSpace=wrap;rounded=0;fontSize=16;" vertex="1" parent="1">
          <mxGeometry x="-420" y="580" width="60" height="30" as="geometry" />
        </mxCell>
        <mxCell id="IYd9A0a_aof_fWHvziBx-18" value="" style="endArrow=none;html=1;rounded=0;fontSize=12;startSize=8;endSize=8;curved=1;" edge="1" parent="1">
          <mxGeometry width="50" height="50" relative="1" as="geometry">
            <mxPoint x="-320" y="540" as="sourcePoint" />
            <mxPoint x="-160" y="540" as="targetPoint" />
          </mxGeometry>
        </mxCell>
        <mxCell id="IYd9A0a_aof_fWHvziBx-20" value="" style="endArrow=classic;html=1;rounded=0;fontSize=12;startSize=8;endSize=8;curved=1;entryX=0.5;entryY=0;entryDx=0;entryDy=0;" edge="1" parent="1">
          <mxGeometry width="50" height="50" relative="1" as="geometry">
            <mxPoint x="-160" y="540" as="sourcePoint" />
            <mxPoint x="-159.5" y="630" as="targetPoint" />
          </mxGeometry>
        </mxCell>
        <mxCell id="IYd9A0a_aof_fWHvziBx-22" value="Nie" style="text;strokeColor=none;fillColor=none;html=1;align=center;verticalAlign=middle;whiteSpace=wrap;rounded=0;fontSize=16;" vertex="1" parent="1">
          <mxGeometry x="-157.5" y="350" width="60" height="30" as="geometry" />
        </mxCell>
        <mxCell id="IYd9A0a_aof_fWHvziBx-24" value="" style="rhombus;whiteSpace=wrap;html=1;" vertex="1" parent="1">
          <mxGeometry x="280" y="360" width="80" height="60" as="geometry" />
        </mxCell>
        <mxCell id="IYd9A0a_aof_fWHvziBx-25" value="&lt;div&gt;&lt;span lang=&quot;pl&quot; class=&quot;BxUVEf ILfuVd&quot;&gt;&lt;span class=&quot;hgKElc&quot;&gt;&lt;b&gt;Δ &amp;gt; 0&lt;/b&gt;&lt;/span&gt;&lt;/span&gt;&lt;/div&gt;" style="text;strokeColor=none;fillColor=none;html=1;align=center;verticalAlign=middle;whiteSpace=wrap;rounded=0;fontSize=16;" vertex="1" parent="1">
          <mxGeometry x="290" y="375" width="60" height="30" as="geometry" />
        </mxCell>
        <mxCell id="IYd9A0a_aof_fWHvziBx-26" value="" style="endArrow=none;html=1;rounded=0;fontSize=12;startSize=8;endSize=8;curved=1;" edge="1" parent="1">
          <mxGeometry width="50" height="50" relative="1" as="geometry">
            <mxPoint x="190" y="389" as="sourcePoint" />
            <mxPoint x="280" y="389.29" as="targetPoint" />
          </mxGeometry>
        </mxCell>
        <mxCell id="IYd9A0a_aof_fWHvziBx-27" value="" style="endArrow=classic;html=1;rounded=0;fontSize=12;startSize=8;endSize=8;curved=1;" edge="1" parent="1">
          <mxGeometry width="50" height="50" relative="1" as="geometry">
            <mxPoint x="190" y="390" as="sourcePoint" />
            <mxPoint x="190" y="450" as="targetPoint" />
          </mxGeometry>
        </mxCell>
        <mxCell id="IYd9A0a_aof_fWHvziBx-28" value="Tak" style="text;strokeColor=none;fillColor=none;html=1;align=center;verticalAlign=middle;whiteSpace=wrap;rounded=0;fontSize=16;" vertex="1" parent="1">
          <mxGeometry x="200" y="360" width="60" height="30" as="geometry" />
        </mxCell>
        <mxCell id="IYd9A0a_aof_fWHvziBx-29" value="" style="rounded=0;whiteSpace=wrap;html=1;" vertex="1" parent="1">
          <mxGeometry x="120" y="450" width="140" height="100" as="geometry" />
        </mxCell>
        <mxCell id="IYd9A0a_aof_fWHvziBx-31" value="" style="endArrow=classic;html=1;rounded=0;fontSize=12;startSize=8;endSize=8;curved=1;" edge="1" parent="1">
          <mxGeometry width="50" height="50" relative="1" as="geometry">
            <mxPoint x="189.29000000000002" y="550" as="sourcePoint" />
            <mxPoint x="189.29000000000002" y="610" as="targetPoint" />
          </mxGeometry>
        </mxCell>
        <mxCell id="IYd9A0a_aof_fWHvziBx-32" value="" style="shape=parallelogram;perimeter=parallelogramPerimeter;whiteSpace=wrap;html=1;fixedSize=1;" vertex="1" parent="1">
          <mxGeometry x="120" y="610" width="125" height="60" as="geometry" />
        </mxCell>
        <mxCell id="IYd9A0a_aof_fWHvziBx-33" value="print(x1,x2)" style="text;strokeColor=none;fillColor=none;html=1;align=center;verticalAlign=middle;whiteSpace=wrap;rounded=0;fontSize=16;" vertex="1" parent="1">
          <mxGeometry x="152.5" y="625" width="57.5" height="30" as="geometry" />
        </mxCell>
        <mxCell id="IYd9A0a_aof_fWHvziBx-34" value="&lt;div&gt;`x1=(-b+sqrt(delta))/(2a)`&lt;/div&gt;`x2=(-b-sqrt(delta))/(2a)`" style="text;strokeColor=none;fillColor=none;html=1;align=center;verticalAlign=middle;whiteSpace=wrap;rounded=0;fontSize=16;" vertex="1" parent="1">
          <mxGeometry x="130" y="485" width="122.5" height="30" as="geometry" />
        </mxCell>
        <mxCell id="IYd9A0a_aof_fWHvziBx-35" value="" style="endArrow=none;html=1;rounded=0;fontSize=12;startSize=8;endSize=8;curved=1;" edge="1" parent="1">
          <mxGeometry width="50" height="50" relative="1" as="geometry">
            <mxPoint x="360" y="390" as="sourcePoint" />
            <mxPoint x="510" y="390" as="targetPoint" />
          </mxGeometry>
        </mxCell>
        <mxCell id="IYd9A0a_aof_fWHvziBx-36" value="" style="endArrow=classic;html=1;rounded=0;fontSize=12;startSize=8;endSize=8;curved=1;" edge="1" parent="1">
          <mxGeometry width="50" height="50" relative="1" as="geometry">
            <mxPoint x="510" y="390" as="sourcePoint" />
            <mxPoint x="510" y="450" as="targetPoint" />
          </mxGeometry>
        </mxCell>
        <mxCell id="IYd9A0a_aof_fWHvziBx-38" value="Nie" style="text;strokeColor=none;fillColor=none;html=1;align=center;verticalAlign=middle;whiteSpace=wrap;rounded=0;fontSize=16;" vertex="1" parent="1">
          <mxGeometry x="400" y="360" width="60" height="30" as="geometry" />
        </mxCell>
        <mxCell id="IYd9A0a_aof_fWHvziBx-39" value="" style="rhombus;whiteSpace=wrap;html=1;" vertex="1" parent="1">
          <mxGeometry x="470" y="450" width="80" height="60" as="geometry" />
        </mxCell>
        <mxCell id="IYd9A0a_aof_fWHvziBx-40" value="&lt;div&gt;&lt;span lang=&quot;pl&quot; class=&quot;BxUVEf ILfuVd&quot;&gt;&lt;span class=&quot;hgKElc&quot;&gt;&lt;b&gt;Δ = 0&lt;/b&gt;&lt;/span&gt;&lt;/span&gt;&lt;/div&gt;" style="text;strokeColor=none;fillColor=none;html=1;align=center;verticalAlign=middle;whiteSpace=wrap;rounded=0;fontSize=16;" vertex="1" parent="1">
          <mxGeometry x="480" y="465" width="60" height="30" as="geometry" />
        </mxCell>
        <mxCell id="IYd9A0a_aof_fWHvziBx-41" value="" style="endArrow=none;html=1;rounded=0;fontSize=12;startSize=8;endSize=8;curved=1;" edge="1" parent="1">
          <mxGeometry width="50" height="50" relative="1" as="geometry">
            <mxPoint x="390" y="479" as="sourcePoint" />
            <mxPoint x="470" y="479.29" as="targetPoint" />
          </mxGeometry>
        </mxCell>
        <mxCell id="IYd9A0a_aof_fWHvziBx-42" value="" style="endArrow=classic;html=1;rounded=0;fontSize=12;startSize=8;endSize=8;curved=1;" edge="1" parent="1">
          <mxGeometry width="50" height="50" relative="1" as="geometry">
            <mxPoint x="390" y="480" as="sourcePoint" />
            <mxPoint x="390" y="540" as="targetPoint" />
          </mxGeometry>
        </mxCell>
        <mxCell id="IYd9A0a_aof_fWHvziBx-43" value="Tak" style="text;strokeColor=none;fillColor=none;html=1;align=center;verticalAlign=middle;whiteSpace=wrap;rounded=0;fontSize=16;" vertex="1" parent="1">
          <mxGeometry x="400" y="450" width="60" height="30" as="geometry" />
        </mxCell>
        <mxCell id="IYd9A0a_aof_fWHvziBx-45" value="" style="rounded=0;whiteSpace=wrap;html=1;" vertex="1" parent="1">
          <mxGeometry x="340" y="540" width="100" height="70" as="geometry" />
        </mxCell>
        <mxCell id="IYd9A0a_aof_fWHvziBx-46" value="`x0=-b/(2a)`" style="text;strokeColor=none;fillColor=none;html=1;align=center;verticalAlign=middle;whiteSpace=wrap;rounded=0;fontSize=16;" vertex="1" parent="1">
          <mxGeometry x="360" y="560" width="60" height="30" as="geometry" />
        </mxCell>
        <mxCell id="IYd9A0a_aof_fWHvziBx-47" value="" style="shape=parallelogram;perimeter=parallelogramPerimeter;whiteSpace=wrap;html=1;fixedSize=1;" vertex="1" parent="1">
          <mxGeometry x="315" y="670" width="125" height="60" as="geometry" />
        </mxCell>
        <mxCell id="IYd9A0a_aof_fWHvziBx-48" value="print(x0)" style="text;strokeColor=none;fillColor=none;html=1;align=center;verticalAlign=middle;whiteSpace=wrap;rounded=0;fontSize=16;" vertex="1" parent="1">
          <mxGeometry x="347.5" y="685" width="57.5" height="30" as="geometry" />
        </mxCell>
        <mxCell id="IYd9A0a_aof_fWHvziBx-49" value="" style="endArrow=classic;html=1;rounded=0;fontSize=12;startSize=8;endSize=8;curved=1;" edge="1" parent="1">
          <mxGeometry width="50" height="50" relative="1" as="geometry">
            <mxPoint x="389.29" y="610" as="sourcePoint" />
            <mxPoint x="389.29" y="670" as="targetPoint" />
          </mxGeometry>
        </mxCell>
        <mxCell id="IYd9A0a_aof_fWHvziBx-50" value="" style="endArrow=none;html=1;rounded=0;fontSize=12;startSize=8;endSize=8;curved=1;exitX=1;exitY=0.5;exitDx=0;exitDy=0;" edge="1" parent="1">
          <mxGeometry width="50" height="50" relative="1" as="geometry">
            <mxPoint x="550" y="480" as="sourcePoint" />
            <mxPoint x="640" y="480" as="targetPoint" />
          </mxGeometry>
        </mxCell>
        <mxCell id="IYd9A0a_aof_fWHvziBx-51" value="" style="endArrow=classic;html=1;rounded=0;fontSize=12;startSize=8;endSize=8;curved=1;" edge="1" parent="1">
          <mxGeometry width="50" height="50" relative="1" as="geometry">
            <mxPoint x="640" y="480" as="sourcePoint" />
            <mxPoint x="640" y="540" as="targetPoint" />
          </mxGeometry>
        </mxCell>
        <mxCell id="IYd9A0a_aof_fWHvziBx-52" value="&lt;div&gt;Nie&lt;/div&gt;" style="text;strokeColor=none;fillColor=none;html=1;align=center;verticalAlign=middle;whiteSpace=wrap;rounded=0;fontSize=16;" vertex="1" parent="1">
          <mxGeometry x="560" y="450" width="60" height="30" as="geometry" />
        </mxCell>
        <mxCell id="IYd9A0a_aof_fWHvziBx-53" value="" style="shape=parallelogram;perimeter=parallelogramPerimeter;whiteSpace=wrap;html=1;fixedSize=1;" vertex="1" parent="1">
          <mxGeometry x="560" y="540" width="150" height="70" as="geometry" />
        </mxCell>
        <mxCell id="IYd9A0a_aof_fWHvziBx-54" value="print(&quot;Równanie sprzeczne&quot;)" style="text;strokeColor=none;fillColor=none;html=1;align=center;verticalAlign=middle;whiteSpace=wrap;rounded=0;fontSize=16;" vertex="1" parent="1">
          <mxGeometry x="605" y="560" width="60" height="30" as="geometry" />
        </mxCell>
        <mxCell id="IYd9A0a_aof_fWHvziBx-56" value="" style="endArrow=none;html=1;rounded=0;fontSize=12;startSize=8;endSize=8;curved=1;" edge="1" parent="1">
          <mxGeometry width="50" height="50" relative="1" as="geometry">
            <mxPoint x="-361" y="850" as="sourcePoint" />
            <mxPoint x="-361.43" y="700" as="targetPoint" />
          </mxGeometry>
        </mxCell>
        <mxCell id="IYd9A0a_aof_fWHvziBx-57" value="" style="endArrow=none;html=1;rounded=0;fontSize=12;startSize=8;endSize=8;curved=1;" edge="1" parent="1">
          <mxGeometry width="50" height="50" relative="1" as="geometry">
            <mxPoint x="-171" y="850" as="sourcePoint" />
            <mxPoint x="-170.71" y="700" as="targetPoint" />
          </mxGeometry>
        </mxCell>
        <mxCell id="IYd9A0a_aof_fWHvziBx-58" value="" style="endArrow=none;html=1;rounded=0;fontSize=12;startSize=8;endSize=8;curved=1;" edge="1" parent="1">
          <mxGeometry width="50" height="50" relative="1" as="geometry">
            <mxPoint x="-40" y="830" as="sourcePoint" />
            <mxPoint x="-35.71000000000001" y="610" as="targetPoint" />
          </mxGeometry>
        </mxCell>
        <mxCell id="IYd9A0a_aof_fWHvziBx-59" value="" style="endArrow=none;html=1;rounded=0;fontSize=12;startSize=8;endSize=8;curved=1;" edge="1" parent="1">
          <mxGeometry width="50" height="50" relative="1" as="geometry">
            <mxPoint x="182" y="810" as="sourcePoint" />
            <mxPoint x="181.79000000000005" y="670" as="targetPoint" />
          </mxGeometry>
        </mxCell>
        <mxCell id="IYd9A0a_aof_fWHvziBx-60" value="" style="endArrow=none;html=1;rounded=0;fontSize=12;startSize=8;endSize=8;curved=1;" edge="1" parent="1">
          <mxGeometry width="50" height="50" relative="1" as="geometry">
            <mxPoint x="377" y="810" as="sourcePoint" />
            <mxPoint x="376.7900000000001" y="730" as="targetPoint" />
          </mxGeometry>
        </mxCell>
        <mxCell id="IYd9A0a_aof_fWHvziBx-62" value="" style="ellipse;whiteSpace=wrap;html=1;" vertex="1" parent="1">
          <mxGeometry x="560" y="790" width="120" height="80" as="geometry" />
        </mxCell>
        <mxCell id="IYd9A0a_aof_fWHvziBx-64" value="Koniec" style="text;strokeColor=none;fillColor=none;html=1;align=center;verticalAlign=middle;whiteSpace=wrap;rounded=0;fontSize=16;" vertex="1" parent="1">
          <mxGeometry x="590" y="815" width="60" height="30" as="geometry" />
        </mxCell>
        <mxCell id="IYd9A0a_aof_fWHvziBx-65" value="" style="endArrow=classic;html=1;rounded=0;fontSize=12;startSize=8;endSize=8;curved=1;exitX=0.57;exitY=1;exitDx=0;exitDy=0;exitPerimeter=0;entryX=0.695;entryY=0.077;entryDx=0;entryDy=0;entryPerimeter=0;" edge="1" parent="1" source="IYd9A0a_aof_fWHvziBx-53" target="IYd9A0a_aof_fWHvziBx-62">
          <mxGeometry width="50" height="50" relative="1" as="geometry">
            <mxPoint x="640" y="700" as="sourcePoint" />
            <mxPoint x="710" y="790" as="targetPoint" />
          </mxGeometry>
        </mxCell>
        <mxCell id="IYd9A0a_aof_fWHvziBx-66" value="" style="endArrow=classic;html=1;rounded=0;fontSize=12;startSize=8;endSize=8;curved=1;" edge="1" parent="1">
          <mxGeometry width="50" height="50" relative="1" as="geometry">
            <mxPoint x="-360" y="850" as="sourcePoint" />
            <mxPoint x="560" y="850" as="targetPoint" />
          </mxGeometry>
        </mxCell>
        <mxCell id="IYd9A0a_aof_fWHvziBx-67" value="" style="endArrow=classic;html=1;rounded=0;fontSize=12;startSize=8;endSize=8;curved=1;entryX=0.011;entryY=0.273;entryDx=0;entryDy=0;entryPerimeter=0;" edge="1" parent="1" target="IYd9A0a_aof_fWHvziBx-62">
          <mxGeometry width="50" height="50" relative="1" as="geometry">
            <mxPoint x="180" y="810" as="sourcePoint" />
            <mxPoint x="330" y="810" as="targetPoint" />
          </mxGeometry>
        </mxCell>
        <mxCell id="IYd9A0a_aof_fWHvziBx-68" value="" style="endArrow=classic;html=1;rounded=0;fontSize=12;startSize=8;endSize=8;curved=1;entryX=0;entryY=0.5;entryDx=0;entryDy=0;" edge="1" parent="1" target="IYd9A0a_aof_fWHvziBx-62">
          <mxGeometry width="50" height="50" relative="1" as="geometry">
            <mxPoint x="-40" y="829.29" as="sourcePoint" />
            <mxPoint x="85" y="829.29" as="targetPoint" />
          </mxGeometry>
        </mxCell>
      </root>
    </mxGraphModel>
  </diagram>
</mxfile>
